<svg width="20" height="20" viewBox="0 0 20 20" fill="none" xmlns="http://www.w3.org/2000/svg">
<g clip-path="url(#clip0_4765_13082)">
<path d="M18.3083 12.4993V7.49935C18.3083 3.33268 16.6416 1.66602 12.4749 1.66602H7.47493C3.30827 1.66602 1.6416 3.33268 1.6416 7.49935V12.4993C1.6416 16.666 3.30827 18.3327 7.47493 18.3327H12.4749C16.6416 18.3327 18.3083 16.666 18.3083 12.4993Z" stroke="#1C1C1C" stroke-opacity="0.9" stroke-width="1.25" stroke-linecap="round" stroke-linejoin="round"/>
<path d="M18.3083 12.4993V7.49935C18.3083 3.33268 16.6416 1.66602 12.4749 1.66602H7.47493C3.30827 1.66602 1.6416 3.33268 1.6416 7.49935V12.4993C1.6416 16.666 3.30827 18.3327 7.47493 18.3327H12.4749C16.6416 18.3327 18.3083 16.666 18.3083 12.4993Z" stroke="#0B6366" stroke-opacity="0.2" stroke-width="1.25" stroke-linecap="round" stroke-linejoin="round"/>
<path d="M13.3096 1.66602V18.3327" stroke="#1C1C1C" stroke-opacity="0.9" stroke-width="1.25" stroke-linecap="round" stroke-linejoin="round"/>
<path d="M13.3096 1.66602V18.3327" stroke="#0B6366" stroke-opacity="0.2" stroke-width="1.25" stroke-linecap="round" stroke-linejoin="round"/>
<path d="M7.36667 7.86719L9.5 10.0005L7.36667 12.1339" stroke="#1C1C1C" stroke-opacity="0.9" stroke-width="1.25" stroke-linecap="round" stroke-linejoin="round"/>
<path d="M7.36667 7.86719L9.5 10.0005L7.36667 12.1339" stroke="#0B6366" stroke-opacity="0.2" stroke-width="1.25" stroke-linecap="round" stroke-linejoin="round"/>
</g>
<defs>
<clipPath id="clip0_4765_13082">
<rect width="20" height="20" fill="white"/>
</clipPath>
</defs>
</svg>
