<svg width="36" height="36" viewBox="0 0 36 36" fill="none" xmlns="http://www.w3.org/2000/svg">
<path d="M15.4453 12.4111C15.7382 12.1185 16.2131 12.1183 16.5059 12.4111C16.7983 12.704 16.7983 13.1789 16.5059 13.4717L12.7266 17.25H25.084C25.4979 17.2504 25.834 17.586 25.834 18C25.8338 18.4138 25.4978 18.7496 25.084 18.75H12.7285L16.5059 22.5273C16.7985 22.8202 16.7985 23.296 16.5059 23.5889C16.2132 23.8814 15.7382 23.8811 15.4453 23.5889L10.3867 18.5303C10.2461 18.3897 10.1671 18.1988 10.167 18C10.167 17.8011 10.2461 17.6104 10.3867 17.4697L15.4453 12.4111Z" fill="#1C1C1C" fill-opacity="0.7"/>
</svg>
