<svg width="24" height="24" viewBox="0 0 24 24" fill="none" xmlns="http://www.w3.org/2000/svg">
<path d="M10.4901 2.22859L5.50015 4.09859C4.35015 4.52859 3.41016 5.88858 3.41016 7.11858V14.5486C3.41016 15.7286 4.19017 17.2786 5.14017 17.9886L9.44016 21.1986C10.8502 22.2586 13.1701 22.2586 14.5801 21.1986L18.8802 17.9886C19.8302 17.2786 20.6101 15.7286 20.6101 14.5486V7.11858C20.6101 5.88858 19.6701 4.52859 18.5201 4.09859L13.5302 2.22859C12.6802 1.91859 11.3201 1.91859 10.4901 2.22859Z" stroke="white" stroke-width="1.5" stroke-linecap="round" stroke-linejoin="round"/>
<path d="M11.9977 10.9224C11.9577 10.9224 11.9077 10.9224 11.8677 10.9224C10.9277 10.8924 10.1777 10.1124 10.1777 9.16235C10.1777 8.19235 10.9677 7.40234 11.9377 7.40234C12.9077 7.40234 13.6978 8.19235 13.6978 9.16235C13.6878 10.1224 12.9377 10.8924 11.9977 10.9224Z" stroke="white" stroke-width="1.5" stroke-linecap="round" stroke-linejoin="round"/>
<path d="M10.0071 13.7213C9.04711 14.3613 9.04711 15.4113 10.0071 16.0513C11.0971 16.7813 12.8871 16.7813 13.9771 16.0513C14.9371 15.4113 14.9371 14.3613 13.9771 13.7213C12.8971 12.9913 11.1071 12.9913 10.0071 13.7213Z" stroke="white" stroke-width="1.5" stroke-linecap="round" stroke-linejoin="round"/>
</svg>
