<svg width="16" height="12" viewBox="0 0 16 12" fill="none" xmlns="http://www.w3.org/2000/svg">
<path d="M5.27832 0.219727C5.57124 -0.0728682 6.04607 -0.0730671 6.33887 0.219727C6.63133 0.512547 6.63135 0.987466 6.33887 1.28027L2.55957 5.05859H14.917C15.3309 5.059 15.667 5.39463 15.667 5.80859C15.6668 6.22243 15.3308 6.55819 14.917 6.55859H2.56152L6.33887 10.3359C6.63151 10.6288 6.63153 11.1046 6.33887 11.3975C6.04616 11.69 5.57122 11.6897 5.27832 11.3975L0.219727 6.33887C0.0791428 6.19828 7.69829e-05 6.0074 0 5.80859C-7.81051e-09 5.60974 0.0791557 5.41896 0.219727 5.27832L5.27832 0.219727Z" fill="#1C1C1C" fill-opacity="0.7"/>
</svg>
